<mxfile host="65bd71144e">
    <diagram id="OUbCcWLDV2W5N4Z9F51A" name="Page-1">
        <mxGraphModel dx="355" dy="2736" grid="1" gridSize="10" guides="1" tooltips="1" connect="1" arrows="1" fold="1" page="1" pageScale="1" pageWidth="850" pageHeight="1100" math="0" shadow="0">
            <root>
                <mxCell id="0"/>
                <mxCell id="1" parent="0"/>
                <mxCell id="78" value="" style="rounded=0;whiteSpace=wrap;html=1;" vertex="1" parent="1">
                    <mxGeometry x="880" y="-2180" width="390" height="320" as="geometry"/>
                </mxCell>
                <mxCell id="23" value="" style="group" parent="1" vertex="1" connectable="0">
                    <mxGeometry x="900" y="-2115" width="120" height="60" as="geometry"/>
                </mxCell>
                <mxCell id="24" value="time-tracking-records" style="rounded=1;whiteSpace=wrap;html=1;container=0;verticalAlign=bottom;" parent="23" vertex="1">
                    <mxGeometry width="120" height="60" as="geometry"/>
                </mxCell>
                <mxCell id="25" value="" style="outlineConnect=0;dashed=0;verticalLabelPosition=bottom;verticalAlign=top;align=center;html=1;shape=mxgraph.aws3.dynamo_db;fillColor=#2E73B8;gradientColor=none;" parent="23" vertex="1">
                    <mxGeometry x="45" y="10" width="30" height="31" as="geometry"/>
                </mxCell>
                <mxCell id="71" value="&lt;div style=&quot;&quot;&gt;&lt;span style=&quot;background-color: initial;&quot;&gt;&amp;nbsp;&quot;id&quot;: string;&lt;/span&gt;&lt;br&gt;&lt;/div&gt;&lt;div&gt;&amp;nbsp;&quot;lastAction&quot;: string;&lt;/div&gt;&lt;div&gt;&amp;nbsp;&quot;referenceDate&quot;: string;&lt;/div&gt;&lt;div&gt;&amp;nbsp;&quot;trackings&quot;: [&lt;span style=&quot;background-color: initial;&quot;&gt;{&lt;/span&gt;&lt;/div&gt;&lt;div&gt;&amp;nbsp; &amp;nbsp;&quot;checkin&quot;: string;&lt;/div&gt;&lt;div&gt;&amp;nbsp; &amp;nbsp;&quot;checkout&quot;: string;&lt;/div&gt;&lt;div&gt;&amp;nbsp; }];&lt;/div&gt;&lt;div&gt;&amp;nbsp;&quot;username&quot;: string;&lt;/div&gt;" style="rounded=1;whiteSpace=wrap;html=1;container=0;verticalAlign=middle;align=left;" vertex="1" parent="1">
                    <mxGeometry x="1090" y="-2160" width="160" height="150" as="geometry"/>
                </mxCell>
                <mxCell id="72" value="" style="edgeStyle=none;html=1;" edge="1" parent="1" source="24" target="71">
                    <mxGeometry relative="1" as="geometry"/>
                </mxCell>
                <mxCell id="73" value="" style="group" vertex="1" connectable="0" parent="1">
                    <mxGeometry x="900" y="-1965" width="120" height="60" as="geometry"/>
                </mxCell>
                <mxCell id="74" value="users" style="rounded=1;whiteSpace=wrap;html=1;container=0;verticalAlign=bottom;" vertex="1" parent="73">
                    <mxGeometry width="120" height="60" as="geometry"/>
                </mxCell>
                <mxCell id="75" value="" style="outlineConnect=0;dashed=0;verticalLabelPosition=bottom;verticalAlign=top;align=center;html=1;shape=mxgraph.aws3.dynamo_db;fillColor=#2E73B8;gradientColor=none;" vertex="1" parent="73">
                    <mxGeometry x="45" y="10" width="30" height="31" as="geometry"/>
                </mxCell>
                <mxCell id="76" value="&lt;div style=&quot;&quot;&gt;&lt;span style=&quot;background-color: initial;&quot;&gt;&amp;nbsp;&quot;id&quot;: string;&lt;/span&gt;&lt;br&gt;&lt;/div&gt;&lt;div&gt;&amp;nbsp;&quot;username&quot;: string;&lt;/div&gt;&lt;div&gt;&amp;nbsp;&quot;registration&quot;: string;&lt;br&gt;&lt;/div&gt;&lt;div&gt;&amp;nbsp;&quot;pass&quot;: string;&lt;br&gt;&lt;/div&gt;&lt;div&gt;&amp;nbsp;&lt;br&gt;&lt;/div&gt;" style="rounded=1;whiteSpace=wrap;html=1;container=0;verticalAlign=middle;align=left;" vertex="1" parent="1">
                    <mxGeometry x="1090" y="-1990" width="130" height="110" as="geometry"/>
                </mxCell>
                <mxCell id="77" value="" style="edgeStyle=none;html=1;" edge="1" parent="1" source="74" target="76">
                    <mxGeometry relative="1" as="geometry"/>
                </mxCell>
            </root>
        </mxGraphModel>
    </diagram>
</mxfile>
